<svg width="27" height="29" viewBox="0 0 27 29" fill="none" xmlns="http://www.w3.org/2000/svg">
<path d="M19 13.155V12.165L18.0616 12.055C18.0095 12.055 17.6967 12 17.1754 12C15.0379 12 13.4739 12.66 12.5877 13.815C11.91 13.375 10.9716 13.1 9.87678 13.1C9.35545 13.1 8.99052 13.155 8.99052 13.155L8 13.32L8.05213 14.255C8.10427 15.905 8.88626 19.04 11.5972 19.04H11.7014V20.91C9.72038 21.185 8.05213 21.9 8.05213 21.9V23L13.2654 24.5L18.4787 23V21.9C18.4787 21.9 16.8104 21.185 14.8294 20.91V19.15C18.1137 19.095 19 15.19 19 13.155ZM13.2654 20.8H12.7441V17.72C12.7441 17.72 12.6398 15.85 11.1801 15.85C11.1801 15.85 11.9621 16.29 12.1706 17.885C11.9621 17.94 11.7536 17.94 11.5972 17.94C9.19905 17.94 9.09479 14.255 9.09479 14.255C9.09479 14.255 9.40758 14.2 9.87678 14.2C10.8673 14.2 12.4834 14.42 12.9526 15.905C13.2133 13.43 15.872 13.1 17.1754 13.1C17.6446 13.1 17.9573 13.155 17.9573 13.155C17.9573 13.155 17.9573 18.105 14.673 18.105H14.3081C14.3081 17.005 15.3507 15.355 15.3507 15.355C13.7867 15.905 13.7867 18.05 13.7867 18.05V20.8H13.2654Z" fill="#205624"/>
<path d="M21.8103 17.4209C22.0914 17.5195 22.3219 17.7257 22.4509 17.9942C22.58 18.2628 22.5971 18.5715 22.4985 18.8527C20.6189 24.2121 14.8331 27.1096 9.54012 25.2532C4.24712 23.3968 1.53863 17.5202 3.4183 12.1608C4.95743 7.77237 9.11594 5.03429 13.4778 5.20546L12.3351 3.8476C12.1431 3.61967 12.0496 3.32481 12.075 3.02788C12.1004 2.73094 12.2427 2.45627 12.4706 2.26427C12.6986 2.07228 12.9934 1.97869 13.2904 2.0041C13.5873 2.02951 13.862 2.17184 14.054 2.39977L17.1398 6.06916C17.3291 6.29401 17.4228 6.58413 17.4007 6.87728C17.3786 7.17042 17.2425 7.44322 17.0216 7.63713L13.3741 10.837C13.2631 10.9343 13.1341 11.0088 12.9944 11.0562C12.8547 11.1037 12.707 11.1231 12.5597 11.1135C12.4125 11.1038 12.2686 11.0653 12.1362 11C12.0039 10.9348 11.8857 10.8441 11.7884 10.7332C11.691 10.6222 11.6165 10.4932 11.5691 10.3535C11.5217 10.2138 11.5022 10.0661 11.5118 9.91881C11.5215 9.77156 11.56 9.62765 11.6253 9.4953C11.6905 9.36295 11.7812 9.24475 11.8921 9.14745L13.7949 7.47842C10.2766 7.15554 6.80333 9.29749 5.53882 12.9029C4.05273 17.1402 6.20897 21.7041 10.2837 23.1332C14.3583 24.5623 18.8929 22.3449 20.3785 18.1091C20.4771 17.828 20.6834 17.5976 20.9519 17.4685C21.2204 17.3394 21.5292 17.3223 21.8103 17.4209Z" fill="#205624"/>
</svg>
