<svg width="15" height="15" viewBox="0 0 15 15" fill="none" xmlns="http://www.w3.org/2000/svg">
<path d="M3.73984 5.96037C3.73984 6.17291 3.82427 6.37675 3.97456 6.52704C4.12485 6.67733 4.32869 6.76176 4.54123 6.76176C4.75377 6.76176 4.95761 6.67733 5.1079 6.52704C5.25819 6.37675 5.34262 6.17291 5.34262 5.96037C5.34262 5.74782 5.25819 5.54398 5.1079 5.39369C4.95761 5.2434 4.75377 5.15897 4.54123 5.15897C4.32869 5.15897 4.12485 5.2434 3.97456 5.39369C3.82427 5.54398 3.73984 5.74782 3.73984 5.96037ZM9.61672 5.96037C9.61672 6.17291 9.70116 6.37675 9.85145 6.52704C10.0017 6.67733 10.2056 6.76176 10.4181 6.76176C10.6307 6.76176 10.8345 6.67733 10.9848 6.52704C11.1351 6.37675 11.2195 6.17291 11.2195 5.96037C11.2195 5.74782 11.1351 5.54398 10.9848 5.39369C10.8345 5.2434 10.6307 5.15897 10.4181 5.15897C10.2056 5.15897 10.0017 5.2434 9.85145 5.39369C9.70116 5.54398 9.61672 5.74782 9.61672 5.96037ZM7.47967 0C3.34916 0 0 3.34916 0 7.47967C0 11.6102 3.34916 14.9593 7.47967 14.9593C11.6102 14.9593 14.9593 11.6102 14.9593 7.47967C14.9593 3.34916 11.6102 0 7.47967 0ZM11.8706 11.8706C11.2997 12.4416 10.6352 12.8891 9.89554 13.203C9.13255 13.5269 8.31947 13.6905 7.47967 13.6905C6.63988 13.6905 5.8268 13.5269 5.06214 13.203C4.32364 12.8911 3.65282 12.4386 3.08703 11.8706C2.51604 11.2997 2.0686 10.6352 1.75472 9.89554C1.43249 9.13255 1.26887 8.31947 1.26887 7.47967C1.26887 6.63988 1.43249 5.8268 1.75639 5.06214C2.06828 4.32364 2.52078 3.65282 3.0887 3.08703C3.6597 2.51604 4.32419 2.0686 5.06381 1.75472C5.8268 1.43249 6.63988 1.26887 7.47967 1.26887C8.31947 1.26887 9.13255 1.43249 9.89721 1.75639C10.6357 2.06828 11.3065 2.52078 11.8723 3.0887C12.4433 3.6597 12.8908 4.32419 13.2046 5.06381C13.5269 5.8268 13.6905 6.63988 13.6905 7.47967C13.6905 8.31947 13.5269 9.13255 13.203 9.89721C12.8914 10.6354 12.4389 11.3058 11.8706 11.8706ZM10.0174 7.83028H9.21436C9.14424 7.83028 9.08413 7.88371 9.07912 7.95383C9.01568 8.78027 8.32281 9.43307 7.47967 9.43307C6.63654 9.43307 5.942 8.78027 5.88023 7.95383C5.87522 7.88371 5.81511 7.83028 5.74499 7.83028H4.94193C4.92381 7.83026 4.90588 7.83392 4.88922 7.84105C4.87257 7.84818 4.85753 7.85862 4.84504 7.87173C4.83255 7.88485 4.82285 7.90038 4.81655 7.91736C4.81024 7.93435 4.80746 7.95243 4.80836 7.97053C4.88182 9.37798 6.05219 10.5016 7.47967 10.5016C8.90716 10.5016 10.0775 9.37798 10.151 7.97053C10.1519 7.95243 10.1491 7.93435 10.1428 7.91736C10.1365 7.90038 10.1268 7.88485 10.1143 7.87173C10.1018 7.85862 10.0868 7.84818 10.0701 7.84105C10.0535 7.83392 10.0355 7.83026 10.0174 7.83028Z" fill="black"/>
</svg>
