<svg width="18" height="18" viewBox="0 0 18 18" fill="none" xmlns="http://www.w3.org/2000/svg">
<path d="M18 10.832C18 10.282 17.55 9.83202 17 9.83202H14.93C14.88 9.44202 14.81 9.06202 14.71 8.69202L16.43 7.70202C16.91 7.42202 17.07 6.81202 16.8 6.33202C16.6662 6.1026 16.4473 5.93513 16.1909 5.86588C15.9345 5.79663 15.6611 5.83117 15.43 5.96202L13.92 6.83202C13.64 6.35202 13.3 5.92202 12.93 5.54202C12.97 5.31202 13 5.08202 13 4.83202C13 4.03202 12.76 3.28202 12.35 2.65202L13.29 1.71202C13.3826 1.61944 13.456 1.50953 13.5061 1.38856C13.5562 1.2676 13.582 1.13795 13.582 1.00702C13.582 0.87609 13.5562 0.746441 13.5061 0.625477C13.456 0.504513 13.3826 0.394602 13.29 0.302021C13.1974 0.209439 13.0875 0.135999 12.9665 0.0858936C12.8456 0.0357887 12.7159 0.00999999 12.585 0.00999999C12.4541 0.00999999 12.3244 0.0357887 12.2035 0.0858936C12.0825 0.135999 11.9726 0.209439 11.88 0.302021L10.86 1.32202C9.18 0.43202 7.76 0.99202 7.13 1.32202L6.12 0.292021C6.02742 0.199439 5.91751 0.125999 5.79654 0.0758936C5.67558 0.0257887 5.54593 0 5.415 0C5.28407 0 5.15442 0.0257887 5.03346 0.0758936C4.91249 0.125999 4.80258 0.199439 4.71 0.292021C4.52302 0.478998 4.41798 0.732594 4.41798 0.99702C4.41798 1.26145 4.52302 1.51504 4.71 1.70202L5.65 2.64202C5.24 3.28202 5 4.03202 5 4.83202C5 5.08202 5.03 5.31202 5.07 5.55202C4.7 5.93202 4.36 6.36202 4.08 6.83202L2.57 5.96202C2.45643 5.89693 2.33114 5.85487 2.2013 5.83824C2.07146 5.82162 1.93961 5.83074 1.8133 5.86511C1.68699 5.89947 1.5687 5.9584 1.46518 6.03851C1.36166 6.11863 1.27495 6.21837 1.21 6.33202C0.93 6.81202 1.1 7.42202 1.58 7.70202L3.3 8.69202C3.2 9.06202 3.13 9.44202 3.08 9.83202H1C0.45 9.83202 0 10.282 0 10.832C0 11.382 0.45 11.832 1 11.832H3.07C3.12 12.222 3.19 12.602 3.29 12.972L1.57 13.962C1.09 14.242 0.93 14.852 1.2 15.332C1.48 15.812 2.09 15.972 2.57 15.702L4.08 14.832C5.16 16.642 6.96 17.832 9 17.832C11.04 17.832 12.84 16.642 13.92 14.832L15.43 15.702C15.91 15.982 16.52 15.812 16.8 15.332C17.08 14.852 16.91 14.242 16.43 13.962L14.71 12.972C14.81 12.602 14.88 12.222 14.93 11.832H17C17.55 11.832 18 11.382 18 10.832ZM9 13.832C8.45 13.832 8 13.382 8 12.832V8.83202C8 8.28202 8.45 7.83202 9 7.83202C9.55 7.83202 10 8.28202 10 8.83202V12.832C10 13.382 9.55 13.832 9 13.832Z" fill="#205624"/>
</svg>
