<svg width="18" height="18" viewBox="0 0 18 18" fill="none" xmlns="http://www.w3.org/2000/svg">
<path d="M4.4744 13.5256L3.3432 14.6568M4.4744 4.4744L3.3432 3.3432M13.5256 4.4744L14.6568 3.3432M13.5256 13.5256L14.6568 14.6568M2.6 9H1M9 2.6V1M15.4 9H17M9 15.4V17M11.2624 11.2624C11.568 10.9672 11.8118 10.6141 11.9795 10.2237C12.1472 9.83328 12.2355 9.41338 12.2392 8.98848C12.2429 8.56359 12.1619 8.14221 12.001 7.74895C11.8401 7.35568 11.6025 6.99839 11.3021 6.69794C11.0016 6.39748 10.6443 6.15987 10.2511 5.99897C9.85778 5.83807 9.43641 5.75711 9.01152 5.7608C8.58662 5.76449 8.16672 5.85277 7.77631 6.02048C7.38589 6.18818 7.03279 6.43197 6.7376 6.7376C6.15469 7.34113 5.83215 8.14945 5.83944 8.98848C5.84673 9.82751 6.18327 10.6301 6.77658 11.2234C7.36989 11.8167 8.17249 12.1533 9.01152 12.1606C9.85055 12.1678 10.6589 11.8453 11.2624 11.2624Z" stroke="black" stroke-width="1.5" stroke-linecap="round" stroke-linejoin="round"/>
</svg>
