<svg width="13" height="16" viewBox="0 0 13 16" fill="none" xmlns="http://www.w3.org/2000/svg">
<path d="M6.07724 16C4.34269 16 2.89631 15.3573 1.73809 14.0718C0.57987 12.7863 0.000506436 11.1863 0 9.2718C0 8.42394 0.177253 7.57607 0.531758 6.72821C0.886263 5.88035 1.3294 5.06667 1.86115 4.28719C2.39291 3.5077 2.96898 2.77608 3.58937 2.09232C4.20975 1.40856 4.78582 0.813684 5.31758 0.307701C5.41887 0.1983 5.53611 0.119804 5.6693 0.0722143C5.80249 0.0246245 5.93847 0.000556125 6.07724 9.11679e-06C6.216 -0.000537891 6.35223 0.0235305 6.48593 0.0722143C6.61963 0.120898 6.73662 0.199394 6.83689 0.307701C7.36865 0.813684 7.94472 1.40856 8.5651 2.09232C9.18549 2.77608 9.76156 3.5077 10.2933 4.28719C10.8251 5.06667 11.2682 5.88035 11.6227 6.72821C11.9772 7.57607 12.1545 8.42394 12.1545 9.2718C12.1545 11.1863 11.5754 12.7863 10.4171 14.0718C9.25892 15.3573 7.81229 16 6.07724 16ZM6.07724 14.359C7.39397 14.359 8.48281 13.8768 9.34375 12.9124C10.2047 11.948 10.6352 10.7345 10.6352 9.2718C10.6352 8.27351 10.252 7.1453 9.48581 5.88719C8.71957 4.62907 7.58338 3.25471 6.07724 1.76411C4.57059 3.25471 3.4344 4.62907 2.66867 5.88719C1.90293 7.1453 1.51982 8.27351 1.51931 9.2718C1.51931 10.735 1.94978 11.9489 2.81072 12.9132C3.67166 13.8776 4.7605 14.3595 6.07724 14.359ZM6.28614 13.5385C6.43807 13.5248 6.56797 13.4597 6.67584 13.3432C6.78372 13.2267 6.8374 13.0866 6.83689 12.9231C6.83689 12.7316 6.77992 12.5779 6.66597 12.462C6.55202 12.346 6.40642 12.2946 6.22917 12.3077C5.71007 12.3487 5.15932 12.195 4.57692 11.8466C3.99452 11.4981 3.62735 10.8655 3.47542 9.94872C3.4501 9.7983 3.38375 9.67522 3.27639 9.57949C3.16903 9.48377 3.04545 9.4359 2.90568 9.4359C2.72843 9.4359 2.58283 9.50783 2.46888 9.6517C2.35493 9.79556 2.31695 9.96294 2.35493 10.1538C2.57016 11.3983 3.0766 12.2872 3.87424 12.8205C4.67188 13.3538 5.47584 13.5932 6.28614 13.5385Z" fill="black"/>
</svg>
