<svg width="24" height="26" viewBox="0 0 24 26" fill="none" xmlns="http://www.w3.org/2000/svg">
<path fill-rule="evenodd" clip-rule="evenodd" d="M23.9999 7.94444C24 9.04001 23.617 10.0949 22.928 10.8969C22.2391 11.6989 21.2953 12.1884 20.2866 12.2669L18.2526 14.4697C18.8226 15.5148 19.0793 16.9014 19.2053 18.4434C19.3333 20.0099 19.3333 21.8414 19.3333 23.8088V24.5556H17.9999V23.8333C17.9999 21.8371 17.9999 20.0669 17.8773 18.5712C17.7699 17.2611 17.5739 16.2406 17.2486 15.4996C16.4506 15.3841 15.7219 14.9493 15.0979 14.4134C14.3619 13.7822 13.7073 12.9581 13.1686 12.1637C12.6507 11.3946 12.1819 10.5882 11.7653 9.75C10.8693 10.4217 9.66192 10.8333 8.33325 10.8333C5.57192 10.8333 3.33325 9.05522 3.33325 6.86111C3.33325 4.84394 5.22525 3.17778 7.67659 2.92283C8.53125 1.222 10.8899 0 13.6666 0C16.8053 0 19.4106 1.56217 19.9126 3.61183L19.9999 3.61111C21.0608 3.61111 22.0782 4.06766 22.8283 4.88032C23.5785 5.69297 23.9999 6.79517 23.9999 7.94444ZM16.0179 8.35828C15.2488 8.5651 14.4591 8.66867 13.6666 8.66667C13.3768 8.66667 13.0924 8.65367 12.8133 8.62767L12.7626 8.70567C12.8346 8.85589 12.9293 9.05017 13.0453 9.27406C13.4257 10.0176 13.8506 10.7334 14.3173 11.4169V11.3114C15.0539 11.3114 15.8273 10.8803 16.4686 10.3668C16.5179 10.3283 16.5657 10.289 16.6119 10.2491C16.2798 9.67797 16.0763 9.03027 16.0179 8.35828ZM17.5019 11.3288C17.8413 11.6232 18.2228 11.8556 18.6313 12.0171L16.8846 13.9093C16.5744 13.773 16.2546 13.5636 15.9253 13.2809C15.69 13.076 15.4667 12.8556 15.2566 12.6208C16.0453 12.3998 16.7433 11.9427 17.2606 11.5296C17.345 11.4621 17.4255 11.3952 17.5019 11.3288Z" fill="#205624"/>
<path d="M6.336 15.8904C6.77803 15.89 7.20181 15.6994 7.51412 15.3606C7.82643 15.0217 8.00169 14.5623 8.00133 14.0834C8.00098 13.6045 7.82505 13.1454 7.51224 12.8071C7.19942 12.4688 6.77536 12.2789 6.33333 12.2793C5.89131 12.2797 5.46752 12.4703 5.15521 12.8092C5.00057 12.9769 4.87795 13.1761 4.79436 13.3952C4.71076 13.6144 4.66782 13.8492 4.668 14.0863C4.66818 14.3234 4.71146 14.5582 4.79538 14.7771C4.8793 14.9961 5.00221 15.1951 5.1571 15.3626C5.46991 15.7009 5.89397 15.8908 6.336 15.8904ZM1.66933 18.7793C2.11136 18.7789 2.53514 18.5883 2.84745 18.2494C3.15976 17.9106 3.33502 17.4512 3.33467 16.9723C3.33431 16.4934 3.15838 16.0343 2.84557 15.696C2.53276 15.3577 2.10869 15.1678 1.66667 15.1682C1.22464 15.1686 0.800856 15.3592 0.488546 15.698C0.176235 16.0369 0.000979615 16.4963 0.00133324 16.9752C0.00168686 17.454 0.177621 17.9131 0.490431 18.2515C0.803242 18.5898 1.22731 18.7797 1.66933 18.7793ZM14.668 16.9723C14.6682 17.2094 14.6252 17.4442 14.5416 17.6634C14.458 17.8825 14.3354 18.0816 14.1808 18.2494C14.0261 18.4172 13.8425 18.5504 13.6404 18.6413C13.4382 18.7322 13.2215 18.7791 13.0027 18.7793C12.5606 18.7797 12.1366 18.5898 11.8238 18.2515C11.511 17.9131 11.335 17.454 11.3347 16.9752C11.3345 16.7381 11.3774 16.5033 11.461 16.2841C11.5446 16.065 11.6672 15.8658 11.8219 15.698C12.1342 15.3592 12.558 15.1686 13 15.1682C13.442 15.1678 13.8661 15.3577 14.1789 15.696C14.4917 16.0343 14.6676 16.4934 14.668 16.9723ZM6 16.6112C6.35362 16.6112 6.69276 16.7634 6.94281 17.0343C7.19286 17.3051 7.33333 17.6725 7.33333 18.0556V19.5001H8.66667C9.02029 19.5001 9.35943 19.6523 9.60948 19.9231C9.85952 20.194 10 20.5614 10 20.9445C10 21.3276 9.85952 21.695 9.60948 21.9659C9.35943 22.2368 9.02029 22.389 8.66667 22.389H6C5.64638 22.389 5.30724 22.2368 5.05719 21.9659C4.80714 21.695 4.66667 21.3276 4.66667 20.9445V18.0556C4.66667 17.6725 4.80714 17.3051 5.05719 17.0343C5.30724 16.7634 5.64638 16.6112 6 16.6112ZM2.66667 20.9445C2.66667 20.5614 2.52619 20.194 2.27614 19.9231C2.02609 19.6523 1.68696 19.5001 1.33333 19.5001C0.979711 19.5001 0.640573 19.6523 0.390524 19.9231C0.140476 20.194 0 20.5614 0 20.9445V24.5556C0 24.9387 0.140476 25.3061 0.390524 25.577C0.640573 25.8479 0.979711 26.0001 1.33333 26.0001H4C4.35362 26.0001 4.69276 25.8479 4.94281 25.577C5.19286 25.3061 5.33333 24.9387 5.33333 24.5556C5.33333 24.1725 5.19286 23.8051 4.94281 23.5343C4.69276 23.2634 4.35362 23.1112 4 23.1112H2.66667V20.9445ZM13.3333 19.5001C12.9797 19.5001 12.6406 19.6523 12.3905 19.9231C12.1405 20.194 12 20.5614 12 20.9445V23.1112H10.6667C10.313 23.1112 9.97391 23.2634 9.72386 23.5343C9.47381 23.8051 9.33333 24.1725 9.33333 24.5556C9.33333 24.9387 9.47381 25.3061 9.72386 25.577C9.97391 25.8479 10.313 26.0001 10.6667 26.0001H13.3333C13.687 26.0001 14.0261 25.8479 14.2761 25.577C14.5262 25.3061 14.6667 24.9387 14.6667 24.5556V20.9445C14.6667 20.5614 14.5262 20.194 14.2761 19.9231C14.0261 19.6523 13.687 19.5001 13.3333 19.5001Z" fill="#205624"/>
</svg>
