<svg width="24" height="26" viewBox="0 0 24 26" fill="none" xmlns="http://www.w3.org/2000/svg">
<path d="M0 23.0286V9.65714C0 9.18666 0.1065 8.74095 0.3195 8.32C0.5325 7.89905 0.826 7.55238 1.2 7.28L10.2 0.594286C10.725 0.198095 11.325 0 12 0C12.675 0 13.275 0.198095 13.8 0.594286L22.8 7.28C23.175 7.55238 23.469 7.89905 23.682 8.32C23.895 8.74095 24.001 9.18666 24 9.65714V23.0286C24 23.8457 23.706 24.5455 23.118 25.1279C22.53 25.7103 21.824 26.001 21 26H16.5C16.075 26 15.719 25.8574 15.432 25.5721C15.145 25.2869 15.001 24.9342 15 24.5143V17.0857C15 16.6648 14.856 16.3121 14.568 16.0279C14.28 15.7436 13.924 15.601 13.5 15.6H10.5C10.075 15.6 9.719 15.7426 9.432 16.0279C9.145 16.3131 9.001 16.6657 9 17.0857V24.5143C9 24.9352 8.856 25.2883 8.568 25.5736C8.28 25.8589 7.924 26.001 7.5 26H3C2.175 26 1.469 25.7093 0.881999 25.1279C0.295 24.5465 0.001 23.8467 0 23.0286Z" fill="#205624"/>
</svg>
