<svg width="27" height="26" viewBox="0 0 27 26" fill="none" xmlns="http://www.w3.org/2000/svg">
<path d="M8.89234 7.84942L1.05239 8.99501L0.913536 9.0235C0.703331 9.07974 0.511702 9.1912 0.358217 9.34649C0.204733 9.50179 0.0948925 9.69536 0.039913 9.90743C-0.0150666 10.1195 -0.0132154 10.3425 0.0452773 10.5536C0.10377 10.7647 0.216809 10.9564 0.37285 11.1091L6.05251 16.681L4.71308 24.5515L4.69711 24.6877C4.68424 24.9069 4.72939 25.1255 4.82792 25.3212C4.92645 25.517 5.07483 25.6828 5.25787 25.8018C5.4409 25.9207 5.65202 25.9885 5.8696 25.9982C6.08717 26.0079 6.30339 25.9591 6.49612 25.8569L13.5078 22.1414L20.5036 25.8569L20.6265 25.9138C20.8293 25.9944 21.0497 26.019 21.2651 25.9854C21.4806 25.9517 21.6832 25.8609 21.8523 25.7222C22.0214 25.5835 22.1509 25.402 22.2274 25.1963C22.304 24.9906 22.3248 24.768 22.2878 24.5515L20.9472 16.681L26.6293 11.1079L26.7251 11.0026C26.8621 10.8326 26.9518 10.6291 26.9853 10.4128C27.0188 10.1965 26.9948 9.97512 26.9157 9.7712C26.8367 9.56729 26.7054 9.38814 26.5353 9.25201C26.3652 9.11588 26.1623 9.02763 25.9473 8.99625L18.1074 7.84942L14.6027 0.691032C14.5013 0.48363 14.3443 0.30898 14.1495 0.186854C13.9547 0.0647269 13.7299 0 13.5005 0C13.271 0 13.0462 0.0647269 12.8514 0.186854C12.6566 0.30898 12.4996 0.48363 12.3982 0.691032L8.89234 7.84942Z" fill="#205624"/>
</svg>
