<svg width="24" height="26" viewBox="0 0 24 26" fill="none" xmlns="http://www.w3.org/2000/svg">
<path d="M23.9449 1.65038L23.7924 0L22.2668 0.523929C19.6522 1.45986 16.8602 1.74707 14.1177 1.36222C11.2358 0.901435 8.28605 1.31089 5.62529 2.54106C4.21473 3.15988 2.97682 4.13238 2.02425 5.37003C1.07169 6.60767 0.434718 8.07114 0.171344 9.6272C-0.170158 11.6374 0.000685321 13.7045 0.667157 15.6262C1.0963 14.6282 1.59776 13.665 2.16731 12.7446C3.45922 10.7862 5.24933 9.23187 7.34156 8.25189C9.35716 7.30374 11.5603 6.85515 13.7744 6.94206C11.6668 7.27485 9.64933 8.05543 7.85009 9.23426C6.98254 9.7962 6.18794 10.4696 5.48544 11.2383C4.8139 12.0069 4.22168 12.8453 3.71831 13.74C2.7733 15.6106 2.10076 17.6143 1.72235 19.6866C1.31451 21.7658 1.09322 23.8791 1.06126 26H3.60389C3.72471 24.0981 3.97535 22.2072 4.35397 20.3416C6.11784 21.3229 8.0959 21.8234 10.1003 21.7955C11.9698 21.7941 13.82 21.4067 15.5415 20.6559C25.2163 16.399 23.9449 2.2398 23.9449 1.65038Z" fill="#205624"/>
</svg>
